<svg xmlns="http://www.w3.org/2000/svg" width="1440" height="480" viewBox="0 0 1440 480" role="img" aria-labelledby="title desc" text-rendering="geometricPrecision" shape-rendering="geometricPrecision">
  <title id="title">Missao 5S Funilaria Goiana</title>
  <desc id="desc">Logo vetorial provisoria da campanha Copa 5S da Funilaria Goiana.</desc>
  <defs>
    <linearGradient id="steel" x1="0" x2="1" y1="0" y2="1">
      <stop offset="0" stop-color="#14385f"/>
      <stop offset="0.5" stop-color="#08213f"/>
      <stop offset="1" stop-color="#06182d"/>
    </linearGradient>
    <linearGradient id="field" x1="0" x2="1" y1="0" y2="1">
      <stop offset="0" stop-color="#14a04d"/>
      <stop offset="1" stop-color="#0b6a34"/>
    </linearGradient>
    <linearGradient id="gold" x1="0" x2="1" y1="0" y2="1">
      <stop offset="0" stop-color="#ffe47a"/>
      <stop offset="0.55" stop-color="#f4c430"/>
      <stop offset="1" stop-color="#d99b13"/>
    </linearGradient>
    <filter id="soft-shadow" x="-10%" y="-12%" width="120%" height="130%">
      <feDropShadow dx="0" dy="10" stdDeviation="10" flood-color="#020a14" flood-opacity="0.35"/>
    </filter>
  </defs>

  <rect width="1440" height="480" rx="46" fill="url(#steel)"/>
  <path d="M0 318h1440v162H0z" fill="url(#field)"/>
  <path d="M86 382h1268M720 318v162M600 402a120 120 0 0 0 240 0" fill="none" stroke="#fff" stroke-opacity=".22" stroke-width="8"/>
  <path d="M406 112h872" stroke="#f58220" stroke-width="14" stroke-linecap="round"/>

  <g filter="url(#soft-shadow)">
    <rect x="66" y="62" width="298" height="298" rx="46" fill="url(#gold)"/>
    <path d="M154 138h126l-16 40h-68l-9 36h64c47 0 78 27 78 68 0 52-44 88-114 88-51 0-92-16-120-42l28-56c26 21 58 32 91 32 30 0 49-11 49-29 0-17-15-25-44-25h-95l30-112z" fill="#08213f"/>
  </g>

  <text x="408" y="204" fill="#ffffff" font-family="Arial Black, Arial, Helvetica, sans-serif" font-size="104" font-weight="900">MISSAO 5S</text>
  <text x="412" y="286" fill="#f4c430" font-family="Arial Black, Arial, Helvetica, sans-serif" font-size="64" font-weight="900">FUNILARIA GOIANA</text>
  <text x="414" y="352" fill="#dbe8f6" font-family="Arial, Helvetica, sans-serif" font-size="38" font-weight="800">Copa 5S de ideias que transformam</text>
</svg>
