<svg xmlns="http://www.w3.org/2000/svg" width="256" height="256" viewBox="0 0 256 256" role="img" aria-labelledby="title desc">
  <title id="title">Icone Missao 5S</title>
  <desc id="desc">Icone 5S com tema Copa da Funilaria Goiana.</desc>
  <defs>
    <linearGradient id="bg" x1="0" x2="1" y1="0" y2="1">
      <stop offset="0" stop-color="#102c4a"/>
      <stop offset=".56" stop-color="#08213f"/>
      <stop offset="1" stop-color="#0f7a3b"/>
    </linearGradient>
  </defs>
  <rect width="256" height="256" rx="52" fill="url(#bg)"/>
  <circle cx="128" cy="128" r="96" fill="#f4c430"/>
  <circle cx="128" cy="128" r="82" fill="#fff" opacity=".16"/>
  <path d="M78 72h99l-13 32h-53l-6 27h45c34 0 58 20 58 51 0 39-33 66-85 66-37 0-69-12-89-31l22-42c19 15 43 24 67 24 23 0 37-8 37-22 0-13-11-19-33-19H53L78 72z" fill="#08213f"/>
  <text x="128" y="72" text-anchor="middle" fill="#ffffff" font-family="Arial, Helvetica, sans-serif" font-size="34" font-weight="900">5S</text>
</svg>
