<svg xmlns="http://www.w3.org/2000/svg" width="512" height="512" viewBox="0 0 512 512" role="img" aria-labelledby="title desc" text-rendering="geometricPrecision" shape-rendering="geometricPrecision">
  <title id="title">Icone Missao 5S</title>
  <desc id="desc">Icone vetorial 5S com tema Copa da Funilaria Goiana.</desc>
  <defs>
    <linearGradient id="bg" x1="0" x2="1" y1="0" y2="1">
      <stop offset="0" stop-color="#14385f"/>
      <stop offset=".55" stop-color="#08213f"/>
      <stop offset="1" stop-color="#0f7a3b"/>
    </linearGradient>
    <linearGradient id="gold" x1="0" x2="1" y1="0" y2="1">
      <stop offset="0" stop-color="#ffe47a"/>
      <stop offset="0.56" stop-color="#f4c430"/>
      <stop offset="1" stop-color="#d99b13"/>
    </linearGradient>
  </defs>
  <rect width="512" height="512" rx="104" fill="url(#bg)"/>
  <circle cx="256" cy="256" r="196" fill="url(#gold)"/>
  <circle cx="256" cy="256" r="164" fill="#fff" opacity=".16"/>
  <path d="M154 138h198l-27 66H220l-13 54h90c69 0 116 40 116 103 0 78-66 133-170 133-76 0-139-24-181-63l45-85c38 31 86 48 135 48 45 0 74-16 74-44 0-27-23-39-67-39H105l49-173z" fill="#08213f"/>
  <text x="256" y="142" text-anchor="middle" fill="#ffffff" font-family="Arial Black, Arial, Helvetica, sans-serif" font-size="70" font-weight="900">5S</text>
</svg>
