<svg xmlns="http://www.w3.org/2000/svg" width="720" height="240" viewBox="0 0 720 240" role="img" aria-labelledby="title desc">
  <title id="title">Missao 5S Funilaria Goiana</title>
  <desc id="desc">Logo compacta da campanha Copa 5S da Funilaria Goiana.</desc>
  <defs>
    <linearGradient id="field" x1="0" x2="1" y1="0" y2="1">
      <stop offset="0" stop-color="#0f7a3b"/>
      <stop offset="1" stop-color="#0b5f30"/>
    </linearGradient>
    <linearGradient id="steel" x1="0" x2="1" y1="0" y2="1">
      <stop offset="0" stop-color="#102c4a"/>
      <stop offset="1" stop-color="#08213f"/>
    </linearGradient>
  </defs>
  <rect width="720" height="240" rx="22" fill="url(#steel)"/>
  <path d="M0 166h720v74H0z" fill="url(#field)"/>
  <path d="M42 190h636M360 166v74M300 202a60 60 0 0 0 120 0" fill="none" stroke="#fff" stroke-opacity=".2" stroke-width="4"/>
  <rect x="34" y="34" width="148" height="148" rx="24" fill="#f4c430"/>
  <path d="M77 78h62l-8 20H98l-4 18h31c22 0 37 13 37 33 0 25-21 43-54 43-24 0-44-8-57-20l14-27c12 10 27 15 43 15 14 0 23-5 23-14 0-8-7-12-21-12H61l17-56z" fill="#08213f"/>
  <path d="M204 62h462" stroke="#f58220" stroke-width="8" stroke-linecap="round"/>
  <text x="204" y="112" fill="#ffffff" font-family="Arial, Helvetica, sans-serif" font-size="52" font-weight="900" letter-spacing="1">MISSAO 5S</text>
  <text x="206" y="154" fill="#f4c430" font-family="Arial, Helvetica, sans-serif" font-size="32" font-weight="900">FUNILARIA GOIANA</text>
  <text x="206" y="196" fill="#dbe8f6" font-family="Arial, Helvetica, sans-serif" font-size="24" font-weight="800">Cada ideia e um gol para a Funilaria</text>
</svg>
